<?xml version="1.0" encoding="UTF-8" ?>
<!DOCTYPE svg PUBLIC "-//W3C//DTD SVG 1.1//EN" "http://www.w3.org/Graphics/SVG/1.1/DTD/svg11.dtd">
<svg width="946pt" height="946pt" viewBox="0 0 946 946" version="1.1" xmlns="http://www.w3.org/2000/svg">
<g id="#132b58ff">
<path fill="#132b58" opacity="1.00" d=" M 0.00 0.00 L 946.00 0.00 L 946.00 946.00 L 0.00 946.00 L 0.00 0.00 M 288.55 318.95 C 288.42 384.29 288.57 449.63 288.48 514.98 C 288.71 516.87 287.70 519.94 290.17 520.66 C 300.76 520.84 311.37 520.75 321.96 520.70 C 323.64 521.03 324.89 519.49 324.62 517.89 C 324.63 452.26 324.63 386.62 324.62 320.99 C 324.92 319.37 323.82 317.83 322.08 318.02 C 312.36 317.95 302.65 318.04 292.93 317.98 C 291.39 317.85 289.91 318.27 288.55 318.95 M 528.22 321.17 C 521.26 323.22 515.90 329.83 515.43 337.09 C 514.60 345.33 520.30 353.58 528.24 355.85 C 534.50 357.80 541.76 356.01 546.30 351.27 C 551.17 346.51 552.89 338.93 550.60 332.52 C 547.66 323.65 537.14 318.21 528.22 321.17 M 158.23 384.25 C 147.89 394.28 140.38 407.18 136.76 421.12 C 131.63 440.34 133.68 461.45 142.72 479.20 C 149.79 493.29 161.20 505.27 175.22 512.57 C 190.35 520.67 208.52 522.88 225.15 518.66 C 241.44 514.59 256.18 504.65 266.16 491.16 C 270.10 485.44 272.36 478.70 273.58 471.90 C 273.21 471.43 272.46 470.47 272.09 469.99 C 262.06 470.04 252.04 469.91 242.01 470.06 C 235.22 478.95 225.22 485.58 214.02 487.09 C 199.58 489.35 184.40 482.94 175.48 471.46 C 167.16 461.05 163.72 446.97 166.18 433.88 C 167.98 423.16 173.79 413.17 182.26 406.36 C 190.25 399.81 200.77 396.39 211.09 397.21 C 222.47 397.89 233.15 403.97 240.13 412.90 C 241.49 414.43 242.57 416.90 245.03 416.60 C 253.79 416.53 262.57 416.86 271.31 416.43 C 273.43 414.92 272.28 412.15 272.17 410.04 C 270.94 398.91 264.09 389.28 255.75 382.18 C 240.75 368.69 219.89 361.84 199.82 364.36 C 184.24 366.13 169.54 373.47 158.23 384.25 M 401.92 365.54 C 381.84 369.81 363.98 382.86 353.34 400.37 C 342.99 417.05 339.36 437.65 342.91 456.92 C 345.98 474.14 354.98 490.27 368.09 501.85 C 380.43 512.83 396.46 519.66 412.97 520.62 C 429.50 521.71 446.29 516.96 459.89 507.53 C 459.95 511.33 459.69 515.15 459.97 518.95 C 460.26 520.94 462.51 520.75 464.00 520.77 C 472.98 520.69 481.97 520.83 490.95 520.70 C 492.56 520.93 493.94 519.51 493.62 517.91 C 493.63 467.58 493.63 417.25 493.62 366.93 C 493.84 365.37 492.84 363.56 491.04 363.90 C 483.05 363.82 475.05 363.93 467.05 363.86 C 464.62 363.89 462.02 363.50 459.87 364.88 C 459.89 368.94 459.81 373.01 459.96 377.08 C 443.24 365.54 421.79 361.09 401.92 365.54 M 516.29 364.37 C 515.22 365.21 515.48 366.77 515.36 367.97 C 515.40 417.95 515.35 467.94 515.39 517.92 C 515.27 519.39 516.38 521.02 518.01 520.73 C 527.68 520.80 537.36 520.70 547.03 520.77 C 548.54 520.68 550.60 521.03 551.43 519.37 C 551.78 516.91 551.59 514.42 551.63 511.95 C 551.60 463.62 551.65 415.30 551.60 366.98 C 551.82 365.43 550.86 363.73 549.11 363.94 C 538.41 363.86 527.70 363.78 517.00 363.97 L 516.29 364.37 M 571.33 364.27 C 570.63 367.79 570.89 371.39 570.88 374.96 C 570.86 422.33 570.89 469.69 570.86 517.06 C 570.74 518.41 571.09 520.71 572.89 520.66 C 582.23 520.90 591.59 520.64 600.94 520.78 C 602.95 520.84 604.98 520.71 606.93 520.13 C 607.37 495.09 607.01 470.03 607.11 444.97 C 606.05 426.73 618.73 408.51 636.41 403.59 C 643.10 401.49 650.28 401.84 657.06 403.33 C 658.74 404.01 659.77 402.22 660.06 400.86 C 663.02 390.91 665.99 380.96 668.96 371.01 C 669.53 369.64 669.64 367.49 667.81 367.06 C 647.64 360.51 624.81 364.25 607.14 375.77 C 607.07 371.96 607.36 368.12 606.75 364.35 C 601.89 363.45 596.94 364.03 592.05 363.88 C 585.15 364.08 578.20 363.43 571.33 364.27 M 725.48 364.63 C 701.31 367.98 679.71 384.21 668.87 405.94 C 660.70 421.78 658.30 440.41 661.70 457.87 C 665.05 475.29 674.42 491.52 688.00 502.95 C 699.70 512.93 714.52 519.25 729.87 520.47 C 748.84 522.22 768.33 516.16 783.07 504.11 C 796.17 493.59 805.56 478.64 809.76 462.40 C 814.42 444.02 812.57 423.97 804.11 406.96 C 796.85 392.03 784.70 379.49 769.88 371.96 C 756.34 364.92 740.56 362.44 725.48 364.63 M 465.49 531.38 C 465.51 541.99 465.48 552.61 465.51 563.22 C 456.57 549.58 434.28 550.11 424.73 562.75 C 418.63 570.41 417.49 580.98 419.65 590.30 C 421.31 596.91 425.26 603.18 431.18 606.73 C 438.25 610.98 447.20 611.58 454.97 609.04 C 459.38 607.60 462.68 604.20 465.53 600.69 C 465.48 603.79 465.50 606.89 465.52 610.00 C 469.60 610.01 473.67 610.01 477.75 609.98 C 477.73 583.78 477.78 557.59 477.73 531.39 C 473.65 531.36 469.57 531.36 465.49 531.38 M 244.51 560.65 C 246.13 563.21 247.75 565.78 249.38 568.34 C 256.61 563.69 266.20 560.35 274.41 564.46 C 278.78 566.57 279.70 571.82 279.67 576.20 C 269.33 576.99 258.02 574.16 248.53 579.54 C 240.98 583.79 239.18 594.40 243.44 601.59 C 246.16 606.52 251.59 609.42 257.02 610.25 C 265.02 611.29 273.99 609.68 279.63 603.47 C 279.61 605.63 279.62 607.81 279.64 609.98 C 283.65 610.02 287.65 610.02 291.66 609.94 C 291.60 596.95 291.68 583.96 291.44 570.98 C 291.11 563.45 285.63 556.61 278.36 554.63 C 266.92 551.47 254.22 553.87 244.51 560.65 M 321.98 554.23 C 312.08 556.50 304.05 564.96 302.17 574.92 C 300.25 584.55 302.17 595.55 309.45 602.58 C 315.00 608.30 323.18 610.71 331.00 610.41 C 339.54 610.42 348.16 607.05 353.88 600.60 C 351.80 598.20 349.55 595.95 347.22 593.80 C 341.36 600.03 331.71 602.30 323.73 599.26 C 310.49 593.46 310.17 571.39 323.03 564.98 C 330.85 561.54 340.56 563.77 346.51 569.79 C 348.77 567.20 351.00 564.60 353.22 561.98 C 345.20 553.97 332.76 551.80 321.98 554.23 M 361.72 560.78 C 363.37 563.31 364.99 565.87 366.69 568.37 C 373.83 563.61 383.38 560.41 391.58 564.41 C 395.89 566.64 396.97 571.78 396.86 576.23 C 390.55 576.31 384.24 576.17 377.94 576.28 C 372.50 576.40 366.84 578.00 362.81 581.81 C 358.00 586.46 357.24 594.18 359.83 600.15 C 362.30 605.28 367.37 609.07 372.98 610.04 C 381.37 611.52 390.99 609.87 396.92 603.29 C 396.88 605.51 396.88 607.75 396.89 609.98 C 400.89 610.01 404.90 610.01 408.91 609.98 C 408.53 597.07 408.97 584.16 408.63 571.26 C 408.44 563.35 402.53 556.37 394.96 554.43 C 383.66 551.65 371.14 553.85 361.72 560.78 M 499.53 559.62 C 486.53 570.28 486.30 592.99 499.13 603.87 C 511.30 613.83 531.14 612.37 541.96 601.00 C 539.85 598.81 537.70 596.66 535.51 594.56 C 529.65 600.17 520.84 602.80 513.04 600.05 C 507.13 598.04 503.10 592.49 501.87 586.52 C 516.14 586.47 530.41 586.52 544.67 586.50 C 544.99 579.68 544.73 572.58 541.77 566.30 C 539.12 560.21 533.37 555.76 526.95 554.27 C 517.64 552.09 507.10 553.45 499.53 559.62 M 568.20 564.16 C 568.28 560.69 568.25 557.23 568.22 553.78 C 564.19 553.72 560.16 553.72 556.14 553.78 C 556.10 572.52 556.13 591.25 556.13 609.99 C 560.16 610.01 564.19 610.01 568.23 609.98 C 568.29 600.65 568.22 591.32 568.25 581.99 C 568.22 576.79 570.01 571.40 573.87 567.80 C 578.30 563.82 585.16 562.88 590.53 565.38 C 594.75 567.56 597.08 572.38 597.09 577.01 C 597.18 588.00 597.09 598.99 597.12 609.99 C 601.20 610.01 605.28 610.01 609.36 609.99 C 609.42 600.66 609.35 591.33 609.38 582.00 C 609.34 577.32 610.74 572.52 613.89 568.98 C 618.51 563.44 627.60 562.27 633.35 566.69 C 636.78 569.33 638.25 573.80 638.13 578.02 C 638.13 588.67 638.12 599.33 638.12 609.99 C 642.20 610.01 646.27 610.01 650.36 609.98 C 650.40 598.32 650.37 586.65 650.38 574.99 C 650.42 568.61 648.29 561.84 643.23 557.70 C 637.02 552.63 628.12 552.37 620.74 554.64 C 614.95 556.32 610.52 560.99 608.23 566.44 C 606.08 560.90 601.83 555.95 595.94 554.33 C 585.90 551.40 573.39 554.42 568.20 564.16 M 654.39 553.79 C 662.05 572.32 669.91 590.76 677.62 609.27 C 675.96 613.07 674.67 617.83 670.44 619.54 C 666.80 621.15 662.98 619.32 659.77 617.61 C 658.01 620.49 656.40 623.45 654.62 626.32 C 660.63 631.59 669.92 632.67 676.95 628.81 C 681.08 626.40 684.27 622.47 685.97 618.01 C 694.48 596.58 703.13 575.20 711.62 553.76 C 707.49 553.78 703.35 553.55 699.23 553.99 C 694.30 568.38 688.98 582.65 683.83 596.96 C 677.98 582.65 672.62 568.14 666.93 553.76 C 662.75 553.73 658.57 553.72 654.39 553.79 M 134.01 577.00 C 133.99 580.33 133.99 583.66 134.01 586.99 C 161.67 587.01 189.33 587.00 216.99 587.00 C 217.01 583.66 217.01 580.33 216.99 577.00 C 189.33 577.00 161.67 577.00 134.01 577.00 M 730.00 577.01 C 729.98 580.33 729.99 583.66 730.01 587.00 C 757.67 587.00 785.33 587.00 812.99 587.00 C 813.00 583.66 813.01 580.33 812.99 577.01 C 785.33 576.99 757.67 576.99 730.00 577.01 Z" />
<path fill="#132b58" opacity="1.00" d=" M 730.54 400.64 C 739.76 399.08 749.49 400.72 757.61 405.38 C 768.51 411.39 776.25 422.69 778.02 435.01 C 779.98 447.49 775.74 460.81 766.79 469.76 C 759.60 477.27 749.41 481.79 739.02 482.12 C 718.66 483.36 699.20 467.11 696.81 446.86 C 695.22 436.04 698.22 424.60 704.98 415.99 C 711.17 407.90 720.52 402.36 730.54 400.64 Z" />
<path fill="#132b58" opacity="1.00" d=" M 411.16 403.20 C 421.83 401.12 433.26 403.52 442.15 409.76 C 451.78 416.35 458.38 427.22 459.59 438.85 C 461.02 450.43 457.06 462.50 449.20 471.09 C 441.18 480.04 429.05 485.14 417.02 484.50 C 400.64 484.08 385.43 472.58 380.11 457.15 C 375.82 445.18 377.54 431.20 384.72 420.68 C 390.77 411.67 400.45 405.14 411.16 403.20 Z" />
<path fill="#132b58" opacity="1.00" d=" M 443.45 563.64 C 449.26 562.16 455.90 563.45 460.18 567.81 C 467.08 574.99 467.26 587.31 461.19 595.05 C 455.45 602.09 443.87 602.88 437.10 596.89 C 426.71 587.99 429.56 567.35 443.45 563.64 Z" />
<path fill="#132b58" opacity="1.00" d=" M 511.74 563.82 C 518.15 561.38 526.49 562.59 530.83 568.25 C 533.03 570.92 533.74 574.38 534.13 577.73 C 523.32 577.78 512.50 577.73 501.69 577.75 C 502.46 571.85 506.05 566.04 511.74 563.82 Z" />
<path fill="#132b58" opacity="1.00" d=" M 253.61 588.49 C 255.74 585.55 259.67 585.03 263.04 584.92 C 268.58 584.83 274.14 584.79 279.69 585.00 C 279.65 588.56 279.97 592.54 277.43 595.42 C 272.63 601.09 263.83 602.70 257.09 599.89 C 252.79 598.13 251.50 592.35 253.61 588.49 Z" />
<path fill="#132b58" opacity="1.00" d=" M 371.60 587.53 C 374.12 585.22 377.76 585.01 381.00 584.88 C 386.25 584.84 391.50 584.87 396.75 584.91 C 396.66 588.06 397.31 591.60 395.33 594.34 C 391.00 600.68 381.89 602.72 374.90 600.15 C 369.91 598.44 368.12 591.44 371.60 587.53 Z" />
</g>
<g id="#ffffffff">
<path fill="#ffffff" opacity="1.00" d=" M 288.55 318.95 C 289.91 318.27 291.39 317.85 292.93 317.98 C 302.65 318.04 312.36 317.95 322.08 318.02 C 323.82 317.83 324.92 319.37 324.62 320.99 C 324.63 386.62 324.63 452.26 324.62 517.89 C 324.89 519.49 323.64 521.03 321.96 520.70 C 311.37 520.75 300.76 520.84 290.17 520.66 C 287.70 519.94 288.71 516.87 288.48 514.98 C 288.57 449.63 288.42 384.29 288.55 318.95 Z" />
<path fill="#ffffff" opacity="1.00" d=" M 528.22 321.17 C 537.14 318.21 547.66 323.65 550.60 332.52 C 552.89 338.93 551.17 346.51 546.30 351.27 C 541.76 356.01 534.50 357.80 528.24 355.85 C 520.30 353.58 514.60 345.33 515.43 337.09 C 515.90 329.83 521.26 323.22 528.22 321.17 Z" />
<path fill="#ffffff" opacity="1.00" d=" M 158.23 384.25 C 169.54 373.47 184.24 366.13 199.82 364.36 C 219.89 361.84 240.75 368.69 255.75 382.18 C 264.09 389.28 270.94 398.91 272.17 410.04 C 272.28 412.15 273.43 414.92 271.31 416.43 C 262.57 416.86 253.79 416.53 245.03 416.60 C 242.57 416.90 241.49 414.43 240.13 412.90 C 233.15 403.97 222.47 397.89 211.09 397.21 C 200.77 396.39 190.25 399.81 182.26 406.36 C 173.79 413.17 167.98 423.16 166.18 433.88 C 163.72 446.97 167.16 461.05 175.48 471.46 C 184.40 482.94 199.58 489.35 214.02 487.09 C 225.22 485.58 235.22 478.95 242.01 470.06 C 252.04 469.91 262.06 470.04 272.09 469.99 C 272.46 470.47 273.21 471.43 273.58 471.90 C 272.36 478.70 270.10 485.44 266.16 491.16 C 256.18 504.65 241.44 514.59 225.15 518.66 C 208.52 522.88 190.35 520.67 175.22 512.57 C 161.20 505.27 149.79 493.29 142.72 479.20 C 133.68 461.45 131.63 440.34 136.76 421.12 C 140.38 407.18 147.89 394.28 158.23 384.25 Z" />
<path fill="#ffffff" opacity="1.00" d=" M 401.92 365.54 C 421.79 361.09 443.24 365.54 459.96 377.08 C 459.81 373.01 459.89 368.94 459.87 364.88 C 462.02 363.50 464.62 363.89 467.05 363.86 C 475.05 363.93 483.05 363.82 491.04 363.90 C 492.84 363.56 493.84 365.37 493.62 366.93 C 493.63 417.25 493.63 467.58 493.62 517.91 C 493.94 519.51 492.56 520.93 490.95 520.70 C 481.97 520.83 472.98 520.69 464.00 520.77 C 462.51 520.75 460.26 520.94 459.97 518.95 C 459.69 515.15 459.95 511.33 459.89 507.53 C 446.29 516.96 429.50 521.71 412.97 520.62 C 396.46 519.66 380.43 512.83 368.09 501.85 C 354.98 490.27 345.98 474.14 342.91 456.92 C 339.36 437.65 342.99 417.05 353.34 400.37 C 363.98 382.86 381.84 369.81 401.92 365.54 M 411.16 403.20 C 400.45 405.14 390.77 411.67 384.72 420.68 C 377.54 431.20 375.82 445.18 380.11 457.15 C 385.43 472.58 400.64 484.08 417.02 484.50 C 429.05 485.14 441.18 480.04 449.20 471.09 C 457.06 462.50 461.02 450.43 459.59 438.85 C 458.38 427.22 451.78 416.35 442.15 409.76 C 433.26 403.52 421.83 401.12 411.16 403.20 Z" />
<path fill="#ffffff" opacity="1.00" d=" M 516.29 364.37 L 517.00 363.97 C 527.70 363.78 538.41 363.86 549.11 363.94 C 550.86 363.73 551.82 365.43 551.60 366.98 C 551.65 415.30 551.60 463.62 551.63 511.95 C 551.59 514.42 551.78 516.91 551.43 519.37 C 550.60 521.03 548.54 520.68 547.03 520.77 C 537.36 520.70 527.68 520.80 518.01 520.73 C 516.38 521.02 515.27 519.39 515.39 517.92 C 515.35 467.94 515.40 417.95 515.36 367.97 C 515.48 366.77 515.22 365.21 516.29 364.37 Z" />
<path fill="#ffffff" opacity="1.00" d=" M 571.33 364.27 C 578.20 363.43 585.15 364.08 592.05 363.88 C 596.94 364.03 601.89 363.45 606.75 364.35 C 607.36 368.12 607.07 371.96 607.14 375.77 C 624.81 364.25 647.64 360.51 667.81 367.06 C 669.64 367.49 669.53 369.64 668.96 371.01 C 665.99 380.96 663.02 390.91 660.06 400.86 C 659.77 402.22 658.74 404.01 657.06 403.33 C 650.28 401.84 643.10 401.49 636.41 403.59 C 618.73 408.51 606.05 426.73 607.11 444.97 C 607.01 470.03 607.37 495.09 606.93 520.13 C 604.98 520.71 602.95 520.84 600.94 520.78 C 591.59 520.64 582.23 520.90 572.89 520.66 C 571.09 520.71 570.74 518.41 570.86 517.06 C 570.89 469.69 570.86 422.33 570.88 374.96 C 570.89 371.39 570.63 367.79 571.33 364.27 Z" />
<path fill="#ffffff" opacity="1.00" d=" M 725.48 364.63 C 740.56 362.44 756.34 364.92 769.88 371.96 C 784.70 379.49 796.85 392.03 804.11 406.96 C 812.57 423.97 814.42 444.02 809.76 462.40 C 805.56 478.64 796.17 493.59 783.07 504.11 C 768.33 516.16 748.84 522.22 729.87 520.47 C 714.52 519.25 699.70 512.93 688.00 502.95 C 674.42 491.52 665.05 475.29 661.70 457.87 C 658.30 440.41 660.70 421.78 668.87 405.94 C 679.71 384.21 701.31 367.98 725.48 364.63 M 730.54 400.64 C 720.52 402.36 711.17 407.90 704.98 415.99 C 698.22 424.60 695.22 436.04 696.81 446.86 C 699.20 467.11 718.66 483.36 739.02 482.12 C 749.41 481.79 759.60 477.27 766.79 469.76 C 775.74 460.81 779.98 447.49 778.02 435.01 C 776.25 422.69 768.51 411.39 757.61 405.38 C 749.49 400.72 739.76 399.08 730.54 400.64 Z" />
</g>
<g id="#5cab94ff">
<path fill="#5cab94" opacity="1.00" d=" M 465.49 531.38 C 469.57 531.36 473.65 531.36 477.73 531.39 C 477.78 557.59 477.73 583.78 477.75 609.98 C 473.67 610.01 469.60 610.01 465.52 610.00 C 465.50 606.89 465.48 603.79 465.53 600.69 C 462.68 604.20 459.38 607.60 454.97 609.04 C 447.20 611.58 438.25 610.98 431.18 606.73 C 425.26 603.18 421.31 596.91 419.65 590.30 C 417.49 580.98 418.63 570.41 424.73 562.75 C 434.28 550.11 456.57 549.58 465.51 563.22 C 465.48 552.61 465.51 541.99 465.49 531.38 M 443.45 563.64 C 429.56 567.35 426.71 587.99 437.10 596.89 C 443.87 602.88 455.45 602.09 461.19 595.05 C 467.26 587.31 467.08 574.99 460.18 567.81 C 455.90 563.45 449.26 562.16 443.45 563.64 Z" />
<path fill="#5cab94" opacity="1.00" d=" M 244.51 560.65 C 254.22 553.87 266.92 551.47 278.36 554.63 C 285.63 556.61 291.11 563.45 291.44 570.98 C 291.68 583.96 291.60 596.95 291.66 609.94 C 287.65 610.02 283.65 610.02 279.64 609.98 C 279.62 607.81 279.61 605.63 279.63 603.47 C 273.99 609.68 265.02 611.29 257.02 610.25 C 251.59 609.42 246.16 606.52 243.44 601.59 C 239.18 594.40 240.98 583.79 248.53 579.54 C 258.02 574.16 269.33 576.99 279.67 576.20 C 279.70 571.82 278.78 566.57 274.41 564.46 C 266.20 560.35 256.61 563.69 249.38 568.34 C 247.75 565.78 246.13 563.21 244.51 560.65 M 253.61 588.49 C 251.50 592.35 252.79 598.13 257.09 599.89 C 263.83 602.70 272.63 601.09 277.43 595.42 C 279.97 592.54 279.65 588.56 279.69 585.00 C 274.14 584.79 268.58 584.83 263.04 584.92 C 259.67 585.03 255.74 585.55 253.61 588.49 Z" />
<path fill="#5cab94" opacity="1.00" d=" M 321.98 554.23 C 332.76 551.80 345.20 553.97 353.22 561.98 C 351.00 564.60 348.77 567.20 346.51 569.79 C 340.56 563.77 330.85 561.54 323.03 564.98 C 310.17 571.39 310.49 593.46 323.73 599.26 C 331.71 602.30 341.36 600.03 347.22 593.80 C 349.55 595.95 351.80 598.20 353.88 600.60 C 348.16 607.05 339.54 610.42 331.00 610.41 C 323.18 610.71 315.00 608.30 309.45 602.58 C 302.17 595.55 300.25 584.55 302.17 574.92 C 304.05 564.96 312.08 556.50 321.98 554.23 Z" />
<path fill="#5cab94" opacity="1.00" d=" M 361.72 560.78 C 371.14 553.85 383.66 551.65 394.96 554.43 C 402.53 556.37 408.44 563.35 408.63 571.26 C 408.97 584.16 408.53 597.07 408.91 609.98 C 404.90 610.01 400.89 610.01 396.89 609.98 C 396.88 607.75 396.88 605.51 396.92 603.29 C 390.99 609.87 381.37 611.52 372.98 610.04 C 367.37 609.07 362.30 605.28 359.83 600.15 C 357.24 594.18 358.00 586.46 362.81 581.81 C 366.84 578.00 372.50 576.40 377.94 576.28 C 384.24 576.17 390.55 576.31 396.86 576.23 C 396.97 571.78 395.89 566.64 391.58 564.41 C 383.38 560.41 373.83 563.61 366.69 568.37 C 364.99 565.87 363.37 563.31 361.72 560.78 M 371.60 587.53 C 368.12 591.44 369.91 598.44 374.90 600.15 C 381.89 602.72 391.00 600.68 395.33 594.34 C 397.31 591.60 396.66 588.06 396.75 584.91 C 391.50 584.87 386.25 584.84 381.00 584.88 C 377.76 585.01 374.12 585.22 371.60 587.53 Z" />
<path fill="#5cab94" opacity="1.00" d=" M 499.53 559.62 C 507.10 553.45 517.64 552.09 526.95 554.27 C 533.37 555.76 539.12 560.21 541.77 566.30 C 544.73 572.58 544.99 579.68 544.67 586.50 C 530.41 586.52 516.14 586.47 501.87 586.52 C 503.10 592.49 507.13 598.04 513.04 600.05 C 520.84 602.80 529.65 600.17 535.51 594.56 C 537.70 596.66 539.85 598.81 541.96 601.00 C 531.14 612.37 511.30 613.83 499.13 603.87 C 486.30 592.99 486.53 570.28 499.53 559.62 M 511.74 563.82 C 506.05 566.04 502.46 571.85 501.69 577.75 C 512.50 577.73 523.32 577.78 534.13 577.73 C 533.74 574.38 533.03 570.92 530.83 568.25 C 526.49 562.59 518.15 561.38 511.74 563.82 Z" />
<path fill="#5cab94" opacity="1.00" d=" M 568.20 564.16 C 573.39 554.42 585.90 551.40 595.94 554.33 C 601.83 555.95 606.08 560.90 608.23 566.44 C 610.52 560.99 614.95 556.32 620.74 554.64 C 628.12 552.37 637.02 552.63 643.23 557.70 C 648.29 561.84 650.42 568.61 650.38 574.99 C 650.37 586.65 650.40 598.32 650.36 609.98 C 646.27 610.01 642.20 610.01 638.12 609.99 C 638.12 599.33 638.13 588.67 638.13 578.02 C 638.25 573.80 636.78 569.33 633.35 566.69 C 627.60 562.27 618.51 563.44 613.89 568.98 C 610.74 572.52 609.34 577.32 609.38 582.00 C 609.35 591.33 609.42 600.66 609.36 609.99 C 605.28 610.01 601.20 610.01 597.12 609.99 C 597.09 598.99 597.18 588.00 597.09 577.01 C 597.08 572.38 594.75 567.56 590.53 565.38 C 585.16 562.88 578.30 563.82 573.87 567.80 C 570.01 571.40 568.22 576.79 568.25 581.99 C 568.22 591.32 568.29 600.65 568.23 609.98 C 564.19 610.01 560.16 610.01 556.13 609.99 C 556.13 591.25 556.10 572.52 556.14 553.78 C 560.16 553.72 564.19 553.72 568.22 553.78 C 568.25 557.23 568.28 560.69 568.20 564.16 Z" />
<path fill="#5cab94" opacity="1.00" d=" M 654.39 553.79 C 658.57 553.72 662.75 553.73 666.93 553.76 C 672.62 568.14 677.98 582.65 683.83 596.96 C 688.98 582.65 694.30 568.38 699.23 553.99 C 703.35 553.55 707.49 553.78 711.62 553.76 C 703.13 575.20 694.48 596.58 685.97 618.01 C 684.27 622.47 681.08 626.40 676.95 628.81 C 669.92 632.67 660.63 631.59 654.62 626.32 C 656.40 623.45 658.01 620.49 659.77 617.61 C 662.98 619.32 666.80 621.15 670.44 619.54 C 674.67 617.83 675.96 613.07 677.62 609.27 C 669.91 590.76 662.05 572.32 654.39 553.79 Z" />
<path fill="#5cab94" opacity="1.00" d=" M 134.01 577.00 C 161.67 577.00 189.33 577.00 216.99 577.00 C 217.01 580.33 217.01 583.66 216.99 587.00 C 189.33 587.00 161.67 587.01 134.01 586.99 C 133.99 583.66 133.99 580.33 134.01 577.00 Z" />
<path fill="#5cab94" opacity="1.00" d=" M 730.00 577.01 C 757.67 576.99 785.33 576.99 812.99 577.01 C 813.01 580.33 813.00 583.66 812.99 587.00 C 785.33 587.00 757.67 587.00 730.01 587.00 C 729.99 583.66 729.98 580.33 730.00 577.01 Z" />
</g>
</svg>
