<svg class="svg-icon" style="width: 1em;height: 1em;vertical-align: middle;fill: currentColor;overflow: hidden;" viewBox="0 0 1024 1024" version="1.1" xmlns="http://www.w3.org/2000/svg"><path d="M888 789H136c-39.76 0-72-32.24-72-72V307c0-39.76 32.24-72 72-72h752c39.76 0 72 32.24 72 72v410c0 39.76-32.24 72-72 72z" fill="#F7F9FB" /><path d="M610.26 472.32v28.34h43.46v22.68h-43.46v28.34h47.23l35.91-41.57-32.13-37.79zM281.48 515.78h35.9l-18.9-43.46z" fill="#0079C2" /><path d="M837 421.3h-98.26l-24.56 30.23-24.56-30.23H487.44l-24.56 54.8-22.67-54.8h-90.7v34.01l-13.23-34.01h-73.69L187 602.7h86.92l11.34-32.12h28.34l11.34 32.12h103.92v-9.45l5.67 9.45h249.42l28.34-32.12 28.34 32.12H837L763.31 512 837 421.3zM555.46 578.13h-37.79v-96.37l-39.68 96.37h-28.34l-43.46-98.26v98.26h-64.24l-15.12-32.12h-56.69l-13.23 32.12H222.9l54.8-132.27h41.57l54.8 124.71v-124.7h51.02l37.79 86.92 39.68-86.92h52.91v132.26z m230.52 0h-37.79l-35.9-43.46-37.79 43.46h-96.37V445.87h102.03l34.01 41.57 34.01-41.57h37.79L733.08 512l52.9 66.13z" fill="#0079C2" /></svg>