<svg width="906" height="418" viewBox="0 0 906 418" fill="none" xmlns="http://www.w3.org/2000/svg">
<path d="M206.073 1.32473C207.887 0.418066 209.86 -0.141936 211.913 0.0313973C224.873 0.111397 237.82 -0.00863201 250.78 0.0847013C253.1 -0.168632 254.567 1.8847 254.167 4.0447C254.18 91.5514 254.18 179.071 254.167 266.578C254.527 268.711 252.86 270.765 250.62 270.325C236.5 270.391 222.353 270.511 208.233 270.271C204.94 269.311 206.287 265.218 205.98 262.698C206.1 175.565 205.9 88.4447 206.073 1.32473Z" fill="white"/>
<path d="M525.633 4.28461C537.527 0.337948 551.553 7.59125 555.473 19.4179C558.527 27.9646 556.233 38.0712 549.74 44.4179C543.687 50.7379 534.007 53.1246 525.66 50.5246C515.073 47.4979 507.473 36.4979 508.58 25.5113C509.207 15.8313 516.353 7.01795 525.633 4.28461Z" fill="white"/>
<path d="M32.3134 88.3914C47.3934 74.0181 66.9934 64.2314 87.7667 61.8714C114.527 58.5114 142.34 67.6448 162.34 85.6314C173.46 95.0981 182.593 107.938 184.233 122.778C184.38 125.591 185.913 129.285 183.087 131.298C171.433 131.871 159.727 131.431 148.047 131.525C144.767 131.925 143.327 128.631 141.513 126.591C132.207 114.685 117.967 106.578 102.793 105.671C89.0334 104.578 75.0067 109.138 64.3534 117.871C53.06 126.951 45.3134 140.271 42.9134 154.565C39.6334 172.018 44.22 190.791 55.3134 204.671C67.2067 219.978 87.4467 228.525 106.7 225.511C121.633 223.498 134.967 214.658 144.02 202.805C157.393 202.605 170.753 202.778 184.127 202.711C184.62 203.351 185.62 204.631 186.113 205.258C184.487 214.325 181.473 223.311 176.22 230.938C162.913 248.925 143.26 262.178 121.54 267.605C99.3667 273.231 75.14 270.285 54.9667 259.485C36.2734 249.751 21.06 233.778 11.6334 214.991C-0.419955 191.325 -3.1533 163.178 3.6867 137.551C8.51337 118.965 18.5267 101.765 32.3134 88.3914Z" fill="white"/>
<path d="M357.233 63.4447C383.727 57.5114 412.327 63.4447 434.62 78.8313C434.42 73.4047 434.527 67.978 434.5 62.5647C437.367 60.7247 440.833 61.2447 444.073 61.2047C454.74 61.298 465.407 61.1513 476.06 61.258C478.46 60.8047 479.793 63.218 479.5 65.298C479.513 132.391 479.513 199.498 479.5 266.605C479.927 268.738 478.087 270.631 475.94 270.325C463.967 270.498 451.98 270.311 440.007 270.418C438.02 270.391 435.02 270.645 434.633 267.991C434.26 262.925 434.607 257.831 434.527 252.765C416.393 265.338 394.007 271.671 371.967 270.218C349.953 268.938 328.58 259.831 312.127 245.191C294.647 229.751 282.647 208.245 278.553 185.285C273.82 159.591 278.66 132.125 292.46 109.885C306.647 86.538 330.46 69.138 357.233 63.4447ZM369.553 113.658C355.273 116.245 342.367 124.951 334.3 136.965C324.727 150.991 322.433 169.631 328.153 185.591C335.247 206.165 355.527 221.498 377.367 222.058C393.407 222.911 409.58 216.111 420.273 204.178C430.753 192.725 436.033 176.631 434.127 161.191C432.513 145.685 423.713 131.191 410.873 122.405C399.02 114.085 383.78 110.885 369.553 113.658Z" fill="white"/>
<path d="M509.727 61.8848L510.674 61.3514C524.94 61.0981 539.22 61.2048 553.487 61.3114C555.82 61.0314 557.1 63.2981 556.807 65.3648C556.873 129.791 556.807 194.218 556.847 258.658C556.794 261.951 557.047 265.271 556.58 268.551C555.473 270.765 552.727 270.298 550.714 270.418C537.82 270.325 524.914 270.458 512.02 270.365C509.847 270.751 508.367 268.578 508.527 266.618C508.474 199.978 508.54 133.325 508.487 66.6848C508.647 65.0848 508.3 63.0048 509.727 61.8848Z" fill="white"/>
<path d="M583.114 61.7514C592.274 60.6314 601.54 61.4981 610.74 61.2314C617.26 61.4314 623.86 60.6581 630.34 61.8581C631.154 66.8848 630.767 72.0047 630.86 77.0847C654.42 61.7247 684.86 56.7381 711.754 65.4714C714.194 66.0448 714.047 68.9114 713.287 70.7381C709.327 84.0048 705.367 97.2714 701.42 110.538C701.034 112.351 699.66 114.738 697.42 113.831C688.38 111.845 678.807 111.378 669.887 114.178C646.314 120.738 629.407 145.031 630.82 169.351C630.687 202.765 631.167 236.178 630.58 269.565C627.98 270.338 625.274 270.511 622.594 270.431C610.127 270.245 597.647 270.591 585.194 270.271C582.794 270.338 582.327 267.271 582.487 265.471C582.527 202.311 582.487 139.165 582.514 76.0047C582.527 71.2447 582.18 66.4447 583.114 61.7514Z" fill="white"/>
<path d="M788.646 62.2315C808.753 59.3115 829.793 62.6182 847.846 72.0049C867.606 82.0449 883.806 98.7649 893.486 118.672C904.766 141.352 907.233 168.085 901.02 192.592C895.42 214.245 882.9 234.178 865.433 248.205C845.78 264.272 819.793 272.352 794.5 270.018C774.033 268.392 754.273 259.965 738.673 246.658C720.566 231.418 708.073 209.778 703.606 186.552C699.073 163.272 702.273 138.432 713.166 117.312C727.62 88.3382 756.42 66.6982 788.646 62.2315ZM795.393 110.245C782.033 112.538 769.566 119.925 761.313 130.712C752.3 142.192 748.3 157.445 750.42 171.872C753.606 198.872 779.553 220.538 806.7 218.885C820.553 218.445 834.14 212.418 843.726 202.405C855.66 190.472 861.313 172.712 858.7 156.072C856.34 139.645 846.02 124.578 831.486 116.565C820.66 110.352 807.686 108.165 795.393 110.245Z" fill="white"/>
<path d="M441.993 284.565C447.433 284.538 452.873 284.538 458.313 284.578C458.38 319.511 458.313 354.431 458.34 389.365C452.9 389.405 447.473 389.405 442.033 389.391C442.007 385.245 441.98 381.111 442.047 376.978C438.247 381.658 433.847 386.191 427.967 388.111C417.607 391.498 405.673 390.698 396.247 385.031C388.353 380.298 383.087 371.938 380.873 363.125C377.993 350.698 379.513 336.605 387.647 326.391C400.38 309.538 430.1 308.831 442.02 327.018C441.98 312.871 442.02 298.711 441.993 284.565ZM412.607 327.578C394.087 332.525 390.287 360.045 404.14 371.911C413.167 379.898 428.607 378.845 436.26 369.458C444.353 359.138 444.113 342.711 434.913 333.138C429.207 327.325 420.353 325.605 412.607 327.578Z" fill="#5CAB94"/>
<path d="M147.353 323.591C160.3 314.551 177.233 311.351 192.487 315.565C202.18 318.205 209.487 327.325 209.927 337.365C210.247 354.671 210.14 371.991 210.22 389.311C204.873 389.418 199.54 389.418 194.193 389.365C194.167 386.471 194.153 383.565 194.18 380.685C186.66 388.965 174.7 391.111 164.033 389.725C156.793 388.618 149.553 384.751 145.927 378.178C140.247 368.591 142.647 354.445 152.713 348.778C165.367 341.605 180.447 345.378 194.233 344.325C194.273 338.485 193.047 331.485 187.22 328.671C176.273 323.191 163.487 327.645 153.847 333.845C151.673 330.431 149.513 327.005 147.353 323.591ZM159.487 360.711C156.673 365.858 158.393 373.565 164.127 375.911C173.113 379.658 184.847 377.511 191.247 369.951C194.633 366.111 194.207 360.805 194.26 356.058C186.86 355.778 179.447 355.831 172.06 355.951C167.567 356.098 162.327 356.791 159.487 360.711Z" fill="#5CAB94"/>
<path d="M250.647 315.031C265.02 311.791 281.607 314.685 292.3 325.365C289.34 328.858 286.367 332.325 283.353 335.778C275.42 327.751 262.473 324.778 252.047 329.365C234.9 337.911 235.327 367.338 252.98 375.071C263.62 379.125 276.487 376.098 284.3 367.791C287.407 370.658 290.407 373.658 293.18 376.858C285.553 385.458 274.06 389.951 262.673 389.938C252.247 390.338 241.34 387.125 233.94 379.498C224.233 370.125 221.673 355.458 224.233 342.618C226.74 329.338 237.447 318.058 250.647 315.031Z" fill="#5CAB94"/>
<path d="M303.633 323.765C316.193 314.525 332.887 311.591 347.953 315.298C358.047 317.885 365.927 327.191 366.18 337.738C366.633 354.938 366.047 372.151 366.553 389.365C361.207 389.405 355.86 389.405 350.527 389.365C350.513 386.391 350.513 383.405 350.567 380.445C342.66 389.218 329.833 391.418 318.647 389.445C311.167 388.151 304.407 383.098 301.113 376.258C297.66 368.298 298.673 358.005 305.087 351.805C310.46 346.725 318.007 344.591 325.26 344.431C333.66 344.285 342.073 344.471 350.487 344.365C350.633 338.431 349.193 331.578 343.447 328.605C332.513 323.271 319.78 327.538 310.26 333.885C307.993 330.551 305.833 327.138 303.633 323.765ZM316.807 359.431C312.167 364.645 314.553 373.978 321.207 376.258C330.527 379.685 342.673 376.965 348.447 368.511C351.087 364.858 350.22 360.138 350.34 355.938C343.34 355.885 336.34 355.845 329.34 355.898C325.02 356.071 320.167 356.351 316.807 359.431Z" fill="#5CAB94"/>
<path d="M487.38 322.218C497.473 313.991 511.527 312.178 523.94 315.085C532.5 317.072 540.167 323.005 543.7 331.125C547.647 339.498 547.993 348.965 547.567 358.058C528.553 358.085 509.527 358.018 490.5 358.085C492.14 366.045 497.513 373.445 505.393 376.125C515.793 379.791 527.54 376.285 535.353 368.805C538.273 371.605 541.14 374.471 543.953 377.391C529.527 392.551 503.073 394.498 486.847 381.218C469.74 366.711 470.047 336.431 487.38 322.218ZM503.66 327.818C496.073 330.778 491.287 338.525 490.26 346.391C504.673 346.365 519.1 346.431 533.513 346.365C532.993 341.898 532.047 337.285 529.113 333.725C523.327 326.178 512.207 324.565 503.66 327.818Z" fill="#5CAB94"/>
<path d="M578.94 328.271C585.86 315.285 602.54 311.258 615.926 315.165C623.78 317.325 629.446 323.925 632.313 331.311C635.366 324.045 641.273 317.818 648.993 315.578C658.833 312.551 670.7 312.898 678.98 319.658C685.726 325.178 688.566 334.205 688.513 342.711C688.5 358.258 688.54 373.818 688.486 389.365C683.033 389.405 677.606 389.405 672.166 389.378C672.166 375.165 672.18 360.951 672.18 346.751C672.34 341.125 670.38 335.165 665.806 331.645C658.14 325.751 646.02 327.311 639.86 334.698C635.66 339.418 633.793 345.818 633.846 352.058C633.806 364.498 633.9 376.938 633.82 389.378C628.38 389.405 622.94 389.405 617.5 389.378C617.46 374.711 617.58 360.058 617.46 345.405C617.446 339.231 614.34 332.805 608.713 329.898C601.553 326.565 592.406 327.818 586.5 333.125C581.353 337.925 578.966 345.111 579.006 352.045C578.966 364.485 579.06 376.925 578.98 389.365C573.593 389.405 568.22 389.405 562.846 389.378C562.846 364.391 562.806 339.418 562.86 314.431C568.22 314.351 573.593 314.351 578.966 314.431C579.006 319.031 579.046 323.645 578.94 328.271Z" fill="#5CAB94"/>
<path d="M693.86 314.445C699.433 314.351 705.007 314.365 710.58 314.405C718.167 333.578 725.313 352.925 733.113 372.005C739.98 352.925 747.073 333.898 753.646 314.711C759.14 314.125 764.66 314.431 770.167 314.405C758.847 342.991 747.313 371.498 735.966 400.071C733.7 406.018 729.447 411.258 723.94 414.471C714.567 419.618 702.18 418.178 694.167 411.151C696.54 407.325 698.687 403.378 701.033 399.538C705.313 401.818 710.407 404.258 715.26 402.111C720.9 399.831 722.62 393.485 724.833 388.418C714.553 363.738 704.073 339.151 693.86 314.445Z" fill="#5CAB94"/>
<path d="M0.02 345.391C36.9 345.391 73.78 345.391 110.66 345.391C110.687 349.831 110.687 354.271 110.66 358.725C73.78 358.725 36.9 358.738 0.02 358.711C-0.00666667 354.271 -0.00666667 349.831 0.02 345.391Z" fill="#5CAB94"/>
<path d="M794.673 345.405C831.567 345.378 868.447 345.378 905.327 345.405C905.353 349.831 905.34 354.271 905.327 358.725C868.447 358.725 831.567 358.725 794.687 358.725C794.66 354.271 794.647 349.831 794.673 345.405Z" fill="#5CAB94"/>
</svg>
