<svg width="1068" height="320" viewBox="0 0 1068 320" fill="none" xmlns="http://www.w3.org/2000/svg">
<path d="M562.306 72.188C564.405 72.188 566.105 73.8895 566.105 75.9878V315.347C566.105 317.445 564.405 319.147 562.306 319.147H516.714C514.615 319.147 512.915 317.445 512.915 315.347V298.354C493.91 311.482 471.05 319.147 446.426 319.147C380.214 319.147 326.745 263.746 326.745 195.667C326.745 127.588 380.214 72.1882 446.426 72.188C471.05 72.1881 493.911 79.8516 512.915 92.979V75.9878C512.915 73.8896 514.615 72.1882 516.714 72.188H562.306ZM450.728 315.265L450.905 315.26C451.03 315.255 451.155 315.249 451.279 315.244C451.096 315.251 450.912 315.258 450.728 315.265ZM455.024 315.022C455.129 315.014 455.235 315.008 455.341 315C455.461 314.99 455.582 314.978 455.703 314.968C455.477 314.987 455.25 315.005 455.024 315.022ZM456.447 314.905C456.568 314.894 456.689 314.886 456.809 314.875C456.904 314.866 456.999 314.855 457.094 314.846C456.878 314.866 456.663 314.886 456.447 314.905ZM480.885 309.967L482.242 309.522C482.317 309.497 482.391 309.47 482.466 309.445C481.94 309.622 481.413 309.797 480.885 309.967ZM485.904 308.221C484.883 308.603 483.854 308.971 482.82 309.324C483.077 309.236 483.335 309.15 483.592 309.06C484.366 308.789 485.137 308.508 485.904 308.221ZM448.325 132.978C412.654 132.978 383.736 161.896 383.736 197.567C383.736 233.238 412.654 262.155 448.325 262.156C483.996 262.156 512.915 233.238 512.915 197.567C512.915 161.895 483.997 132.978 448.325 132.978Z" fill="white"/>
<path d="M947.942 72.188C1014.15 72.1882 1067.62 127.588 1067.62 195.667C1067.62 263.747 1014.15 319.147 947.942 319.147C881.73 319.147 828.261 263.747 828.261 195.667C828.261 127.588 881.73 72.188 947.942 72.188ZM947.942 315.348C948.453 315.348 948.963 315.343 949.473 315.336C948.963 315.343 948.453 315.348 947.942 315.348ZM952.839 315.242C951.811 315.286 950.78 315.316 949.745 315.333C950.78 315.316 951.811 315.286 952.839 315.242ZM956.24 315.044C955.198 315.121 954.153 315.182 953.104 315.23C954.153 315.183 955.198 315.121 956.24 315.044ZM956.365 315.035C956.529 315.022 956.693 315.012 956.858 315C957.148 314.977 957.438 314.95 957.728 314.925C957.274 314.965 956.82 315.001 956.365 315.035ZM958.048 314.898C958.141 314.89 958.234 314.883 958.326 314.875C958.692 314.841 959.057 314.803 959.421 314.766C958.964 314.813 958.507 314.857 958.048 314.898ZM959.65 314.744C960.183 314.688 960.716 314.63 961.247 314.567C960.716 314.63 960.183 314.688 959.65 314.744ZM968.454 313.478C967.979 313.566 967.502 313.651 967.025 313.733L968.454 313.479C968.93 313.391 969.405 313.3 969.878 313.207L968.454 313.478ZM974.064 312.293C973.145 312.512 972.222 312.721 971.295 312.917L972.707 312.609C973.161 312.507 973.612 312.401 974.064 312.293ZM974.202 312.259C974.559 312.174 974.916 312.087 975.272 311.998C974.916 312.086 974.559 312.174 974.202 312.259ZM975.682 311.895C976.089 311.792 976.496 311.687 976.902 311.58C976.496 311.687 976.089 311.792 975.682 311.895ZM949.842 129.178C914.17 129.178 885.253 158.096 885.253 193.768C885.253 229.44 914.17 258.357 949.842 258.357C985.514 258.357 1014.43 229.44 1014.43 193.768C1014.43 158.097 985.514 129.178 949.842 129.178ZM859.414 118.437V118.438V118.437Z" fill="white"/>
<path d="M216.596 139.716C214.4 129.189 209.152 119.479 202.038 111.414C188.963 96.5942 172.58 85.3422 154.287 78.7615C131.036 70.397 105.882 70.0054 82.4083 77.6424C58.9342 85.2794 38.3353 100.556 23.5437 121.297C8.7521 142.038 0.521686 167.188 0.0239812 193.165C-0.473724 219.142 6.78665 244.624 20.7716 265.982C34.7566 287.34 54.7535 303.487 77.9158 312.125C101.078 320.762 126.226 321.449 149.778 314.088C173.331 306.727 194.089 291.694 209.098 271.127L211.152 267.369C214.761 260.764 217.37 253.66 218.891 246.289L219.42 243.726C219.907 241.369 218.106 239.159 215.699 239.159H192.111H171.89C170.677 239.159 169.542 239.743 168.8 240.703C160.255 251.765 148.749 259.863 135.771 263.919C122.196 268.162 107.702 267.766 94.3525 262.788C81.0028 257.81 69.4776 248.503 61.4173 236.193C53.357 223.883 49.1725 209.197 49.4593 194.225C49.7462 179.253 54.4898 164.758 63.015 152.804C71.5401 140.85 83.4124 132.045 96.9418 127.643C110.471 123.242 124.968 123.467 138.369 128.288C151.154 132.888 162.149 142.043 170.244 153.481C170.975 154.515 172.154 155.151 173.421 155.151H193.995H214.414C216.613 155.151 218.349 153.292 218.143 151.102C217.835 147.811 217.316 143.164 216.596 139.716Z" fill="white"/>
<circle cx="628.794" cy="32.2945" r="28.4952" fill="white"/>
<rect x="600.299" y="72.188" width="56.9904" height="246.959" rx="3.79936" fill="white"/>
<path d="M740.875 72.188C742.973 72.1881 744.673 73.8896 744.673 75.9878V91.0835C752.085 86.2269 760.014 82.2183 768.334 79.1597C791.527 70.6343 816.59 69.9201 840.13 77.061C842.086 77.6544 843.155 79.7312 842.571 81.6899L827.64 131.742C827.025 133.805 824.822 134.933 822.742 134.377C810.874 131.206 798.367 131.766 786.748 136.037C773.89 140.763 762.805 149.782 755.14 161.755C749.508 170.553 745.945 180.602 744.673 191.058V315.347C744.673 317.445 742.973 319.147 740.875 319.147H691.483C689.385 319.147 687.683 317.445 687.683 315.347V75.9878C687.683 73.8895 689.385 72.188 691.483 72.188H740.875Z" fill="white"/>
<rect x="243.159" width="56.9904" height="319.147" rx="3.79936" fill="white"/>
</svg>
